<svg viewBox="0 0 48 48" xmlns="http://www.w3.org/2000/svg" xmlns:xlink="http://www.w3.org/1999/xlink" >
<defs>



 <path fill="#000000" id="i-2166" d="M18,26c-2.206,0-4,1.795-4,4s1.794,4,4,4s4-1.795,4-4S20.206,26,18,26z M18,32c-1.103,0-2-0.896-2-2s0.897-2,2-2 s2,0.896,2,2S19.103,32,18,32z M8.707,33.293l6,6l-1.414,1.414l-6-6L8.707,33.293z M47.336,6.074C47.741,5.668,48,5.131,48,4.109 C48,1.459,46.579,0,44,0c-1.077,0-1.619,0.271-2.058,0.719C41.895,0.561,41.823,0.41,41.71,0.29c-0.38-0.37-1.05-0.37-1.42,0 C40.109,0.48,40,0.74,40,1c0,0.27,0.109,0.52,0.29,0.71c0.164,0.155,0.385,0.245,0.608,0.27c-0.23,0.243-0.53,0.517-0.938,0.823 c-0.04-0.191-0.116-0.371-0.25-0.513c-0.38-0.37-1.061-0.36-1.42,0C38.109,2.48,38,2.73,38,3c0,0.26,0.109,0.52,0.29,0.71 c0.094,0.089,0.205,0.16,0.325,0.21c-0.22,0.23-0.45,0.487-0.677,0.779c-0.049-0.15-0.12-0.295-0.229-0.409 c-0.37-0.37-1.05-0.37-1.42,0C36.109,4.48,36,4.74,36,5c0,0.27,0.109,0.52,0.29,0.71C36.479,5.89,36.74,6,37,6 c0.046,0,0.09-0.021,0.135-0.027c-0.189,0.391-0.328,0.787-0.366,1.168c-0.023,0.242-0.002,0.449,0.038,0.639l-12.1,12.1 C22.983,18.715,21,18,19,18c-5.213,0-6.008,3.457-6.436,5.314c-0.084,0.367-0.2,0.871-0.271,0.979 c-0.377,0.377-1.734,0.626-2.932,0.846C5.634,25.82,0,26.852,0,33.98C0,40.531,7.469,48,14.02,48c7.128,0,8.16-5.633,8.842-9.361 c0.219-1.197,0.468-2.555,0.823-2.912c0.13-0.091,0.633-0.207,1-0.291C26.543,35.008,30,34.213,30,29c0-2-0.715-3.982-1.88-5.707 l12.096-12.094c0.126,0.025,0.261,0.043,0.41,0.043c0.075,0,0.153-0.004,0.235-0.012c0.38-0.037,0.776-0.176,1.166-0.365 C42.021,10.91,42,10.954,42,11c0,0.26,0.109,0.52,0.29,0.71C42.479,11.89,42.74,12,43,12s0.52-0.11,0.71-0.29 C43.89,11.52,44,11.26,44,11s-0.11-0.52-0.29-0.71c-0.114-0.114-0.26-0.181-0.414-0.224c0.293-0.228,0.552-0.459,0.782-0.68 C44.129,9.506,44.2,9.615,44.29,9.71C44.479,9.89,44.74,10,45,10s0.52-0.11,0.71-0.29C45.89,9.52,46,9.26,46,9s-0.11-0.52-0.29-0.71 c-0.142-0.138-0.325-0.206-0.517-0.242c0.311-0.411,0.586-0.707,0.83-0.931c0.027,0.223,0.113,0.432,0.267,0.593 C46.479,7.89,46.74,8,47,8s0.52-0.11,0.71-0.29C47.89,7.52,48,7.26,48,7s-0.11-0.52-0.29-0.71 C47.604,6.187,47.474,6.119,47.336,6.074z M24.237,33.486c-0.792,0.182-1.477,0.34-1.944,0.807 c-0.818,0.818-1.074,2.217-1.398,3.986C20.232,41.898,19.481,46,14.02,46C8.516,46,2,39.484,2,33.98 c0-5.462,4.102-6.213,7.722-6.875c1.77-0.324,3.167-0.58,3.985-1.398c0.467-0.467,0.625-1.151,0.807-1.943 C14.939,21.913,15.379,20,19,20c4.458,0,9,4.542,9,9C28,32.621,26.087,33.061,24.237,33.486z M26.862,21.724 c-0.189-0.202-0.384-0.396-0.586-0.586L38,9.414L38.586,10L26.862,21.724z M40.707,9.293L40.707,9.293 C40.706,9.292,40.707,9.292,40.707,9.293L40.707,9.293z M45.601,4.912c-0.549,0.38-1.379,0.953-2.432,2.533 c-0.345,0.518-1.932,1.822-2.518,1.792l-1.889-1.889c-0.023-0.565,1.274-2.171,1.792-2.517c1.541-1.027,2.145-1.841,2.544-2.379 C43.435,2,43.435,2,44,2c1.458,0,2,0.572,2,2.109C46,4.637,46,4.637,45.601,4.912z"/> 
</defs>

<use x="0" y="0" xlink:href="#i-2166"/>

</svg>